<svg id="Layer_1" enable-background="new 0 0 512 512" height="512" viewBox="0 0 512 512" width="512" xmlns="http://www.w3.org/2000/svg"><g><circle cx="331.192" cy="134.714" fill="#ffd54f" r="52.024"/><path d="m331.192 82.69c-4.862 0-9.563.681-14.027 1.929 21.915 6.124 37.997 26.225 37.997 50.095s-16.082 43.971-37.997 50.095c4.464 1.247 9.165 1.929 14.027 1.929 28.732 0 52.024-23.292 52.024-52.024s-23.292-52.024-52.024-52.024z" fill="#ffca28"/><g fill="#ffca28"><path d="m331.19 23.165c-4.142 0-7.5 3.357-7.5 7.5v13.477c0 4.143 3.358 7.5 7.5 7.5s7.5-3.357 7.5-7.5v-13.477c0-4.143-3.358-7.5-7.5-7.5z"/><path d="m331.19 217.786c-4.142 0-7.5 3.357-7.5 7.5v13.476c0 4.143 3.358 7.5 7.5 7.5s7.5-3.357 7.5-7.5v-13.476c0-4.143-3.358-7.5-7.5-7.5z"/><path d="m399.459 55.838-9.532 9.532c-2.929 2.93-2.929 7.678 0 10.607 1.464 1.464 3.384 2.196 5.303 2.196s3.839-.732 5.303-2.196l9.532-9.532c2.929-2.93 2.929-7.678 0-10.607-2.928-2.928-7.677-2.928-10.606 0z"/><path d="m261.847 193.45-9.532 9.532c-2.929 2.93-2.929 7.678 0 10.607 1.464 1.464 3.384 2.196 5.303 2.196s3.839-.732 5.303-2.196l9.532-9.532c2.929-2.93 2.929-7.678 0-10.607-2.929-2.928-7.678-2.928-10.606 0z"/><path d="m435.238 127.214h-13.476c-4.142 0-7.5 3.357-7.5 7.5s3.358 7.5 7.5 7.5h13.476c4.142 0 7.5-3.357 7.5-7.5s-3.358-7.5-7.5-7.5z"/><path d="m240.618 127.214h-13.476c-4.142 0-7.5 3.357-7.5 7.5s3.358 7.5 7.5 7.5h13.476c4.142 0 7.5-3.357 7.5-7.5s-3.358-7.5-7.5-7.5z"/><path d="m400.533 193.45c-2.929-2.928-7.678-2.928-10.606 0-2.929 2.93-2.929 7.678 0 10.607l9.532 9.532c1.464 1.464 3.384 2.196 5.303 2.196s3.839-.732 5.303-2.196c2.929-2.93 2.929-7.678 0-10.607z"/><path d="m262.921 55.838c-2.929-2.928-7.678-2.928-10.606 0-2.929 2.93-2.929 7.678 0 10.607l9.532 9.532c1.464 1.464 3.384 2.196 5.303 2.196s3.839-.732 5.303-2.196c2.929-2.93 2.929-7.678 0-10.607z"/></g><path d="m265.202 95.903c76.203 76.122 71.484 156.928 18.68 209.676s-133.696 57.462-209.899-18.66-83.641-239.438-66.058-257.002 181.074-10.136 257.277 65.986z" fill="#64cc56"/><path d="m265.202 95.903c-59.635-59.571-172.722-77.071-227.507-73.447 59.28 3.189 146.674 23.573 196.602 73.448 76.203 76.122 71.484 156.928 18.68 209.676-21.164 21.141-46.842 34.556-74.919 38.153 40.068 5.011 77.102-9.462 105.824-38.153 52.804-52.748 57.523-133.555-18.68-209.677z" fill="#5bbd4f"/><path d="m332.898 343.942-98.049-97.944 8.282-78.429c.435-4.119-2.552-7.811-6.671-8.246-4.11-.435-7.811 2.552-8.246 6.672l-7.009 66.374-36.777-36.737 6.854-60.167c.469-4.115-2.487-7.832-6.603-8.301-4.122-.469-7.832 2.488-8.301 6.604l-5.505 48.324-33.386-33.35 5.421-47.586c.469-4.115-2.487-7.832-6.603-8.301-4.126-.462-7.832 2.487-8.301 6.604l-4.072 35.743-32.839-32.804c-2.93-2.927-7.678-2.926-10.606.005-2.927 2.931-2.925 7.68.006 10.606l32.82 32.785-35.772 4.067c-4.116.468-7.073 4.184-6.605 8.3.436 3.827 3.68 6.653 7.443 6.653.283 0 .569-.017.856-.049l47.647-5.417 33.372 33.336-48.366 5.498c-4.116.468-7.073 4.184-6.605 8.299.435 3.828 3.68 6.654 7.443 6.654.283 0 .569-.017.856-.049l60.241-6.848 36.762 36.722-66.435 7c-4.119.435-7.106 4.126-6.672 8.245.406 3.853 3.66 6.715 7.449 6.715.263 0 .528-.014.795-.042l78.522-8.274 98.052 97.948c1.464 1.463 3.382 2.194 5.3 2.194 1.92 0 3.842-.733 5.306-2.199 2.929-2.929 2.927-7.678-.004-10.605z" fill="#48943e"/><path d="m438.018 420.171c-76.203 76.122-157.096 71.408-209.899 18.66s-57.523-133.554 18.68-209.676 239.693-83.551 257.276-65.987 10.146 180.881-66.057 257.003z" fill="#64cc56"/><path d="m504.075 163.169c-6.063-6.056-29.477-9.139-60.675-7.461 15.221 1.007 25.946 3.642 29.769 7.461 17.583 17.564 10.146 180.88-66.057 257.002-34.753 34.716-70.48 52.612-104.075 56.813 41.977 5.378 89.319-11.2 134.98-56.813 76.204-76.122 83.641-239.438 66.058-257.002z" fill="#5bbd4f"/><path d="m428.282 283.721-31.512-2.762 34.736-34.699c2.931-2.927 2.933-7.676.006-10.606-2.928-2.93-7.677-2.933-10.606-.005l-34.754 34.717-2.766-31.487c-.362-4.126-4.006-7.182-8.127-6.815-4.126.363-7.177 4.002-6.815 8.128l3.866 44.003-33.538 33.503-4.715-51.055c-.381-4.125-4.031-7.167-8.158-6.778-4.125.381-7.16 4.033-6.779 8.157l5.86 63.453-34.184 34.147-7.009-66.373c-.435-4.12-4.125-7.094-8.246-6.672-4.119.436-7.106 4.127-6.671 8.246l8.282 78.429-98.049 97.944c-2.931 2.927-2.933 7.676-.006 10.606 1.465 1.466 3.385 2.199 5.306 2.199 1.918 0 3.836-.731 5.3-2.194l98.052-97.948 78.522 8.274c.268.028.532.042.795.042 3.789 0 7.043-2.863 7.449-6.715.434-4.119-2.553-7.811-6.672-8.245l-66.435-7 34.169-34.132 63.531 5.854c.234.021.466.032.697.032 3.832 0 7.101-2.922 7.459-6.813.38-4.125-2.655-7.776-6.78-8.157l-51.101-4.708 33.524-33.488 44.06 3.863c.223.02.444.028.664.028 3.846 0 7.12-2.941 7.462-6.845.361-4.128-2.69-7.766-6.817-8.128z" fill="#48943e"/></g></svg>
